<svg xmlns="http://www.w3.org/2000/svg" version="1.1" xmlns:xlink="http://www.w3.org/1999/xlink" xmlns:svgjs="http://svgjs.dev/svgjs" width="360" height="360"><svg width="360" height="360" viewBox="0 0 360 360" fill="none" xmlns="http://www.w3.org/2000/svg">
<circle cx="180" cy="180" r="180" fill="#1B1C1D" style="--darkreader-inline-fill: #151718;" data-darkreader-inline-fill=""></circle>
<path d="M178.787 61.9787C132.098 64.5837 88.8562 72.4185 85.2694 120.75C82.8047 154.154 107.492 188.318 133.641 207.875C167.365 233.083 218.963 263.461 260.782 250.276C301.439 237.451 299.556 184.471 295.448 149.304C289.937 101.955 274.949 88.4289 252.587 72.2783C229.723 55.767 196.5 60.9568 178.787 61.9787Z" fill="#FE5186" style="--darkreader-inline-fill: #9b0130;" data-darkreader-inline-fill=""></path>
<path d="M116.028 73.4003C115.787 73.5606 115.527 73.6808 115.286 73.8612C112.321 75.6446 110.277 78.0892 109.996 81.7161C109.635 86.1445 110.818 91.2942 114.344 94.3801C130.775 108.848 173.817 109.449 181.171 84.9823C183.355 77.6484 183.315 69.9137 178.005 63.6618C176.162 61.4577 174.418 58.8928 171.533 58.2917C167.685 57.5302 163.297 59.1132 159.51 59.5941C154.561 60.1953 148.81 61.2773 144.221 62.9605C138.17 65.2048 131.477 67.1885 125.205 69.3927C122.099 70.4748 118.893 71.7772 116.028 73.4003ZM263.768 82.2571C257.015 76.5262 248.98 72.9194 240.203 73.5005C225.595 74.4423 215.897 85.8239 215.276 100.071C214.434 118.846 226.758 137.141 242.708 145.617C252.106 150.627 263.848 154.554 273.506 148.523C284.387 141.69 285.789 123.636 282.503 111.953C279.598 101.654 272.925 90.0318 263.768 82.2571ZM286.391 226.27C293.364 217.213 293.985 204.629 294.185 193.408C294.245 190.122 295.708 166.357 289.617 166.256C285.669 166.176 281.642 167.358 278.215 168.921C253.168 180.263 253.969 216.151 277.494 229.717C279.978 231.119 280.62 232.001 282.864 230.057C284.186 228.855 285.369 227.593 286.391 226.27Z" fill="white" style="--darkreader-inline-fill: var(--darkreader-background-ffffff, #181a1b);" data-darkreader-inline-fill=""></path>
<path d="M240.885 259.834C198.023 259.834 153.058 229.937 130.075 212.124C97.3125 186.695 79.0979 153.813 78.7974 119.468C82.3441 66.5075 144.322 54.6049 180.951 52.2004C182.654 52.0802 185.359 52 188.746 52C196.26 52 215.657 52.4408 233.31 56.5687C247.337 59.8349 262.566 68.1306 271.222 77.2078C285.028 91.7153 296.731 118.246 301.019 144.776C306.028 175.855 302.421 209.238 296.49 224.888C290.258 241.459 278.636 252.54 262.866 256.929C255.973 258.852 248.579 259.834 240.885 259.834ZM188.746 64.3234C185.72 64.3234 183.296 64.4035 181.773 64.5037C149.171 66.6478 94.0262 76.7068 91.1207 119.829C91.3211 140.929 99.5367 172.809 137.629 202.345C159.37 219.197 201.69 247.471 240.885 247.471C247.457 247.471 253.749 246.649 259.56 245.026C271.543 241.68 280.099 233.444 284.948 220.499C289.537 208.377 293.765 177.458 288.836 146.7C284.988 122.834 274.308 98.2878 262.285 85.6638C255.272 78.3099 242.207 71.2565 230.505 68.5313C213.633 64.6239 194.296 64.3234 188.746 64.3234Z" fill="#FE5186" style="--darkreader-inline-fill: var(--darkreader-background-fe5186, #9b0130);" data-darkreader-inline-fill=""></path>
<path d="M104.646 133.475C93.3449 141.67 110.618 171.286 118.412 179.762C130.495 192.967 151.054 209.719 173.898 221.942C192.533 231.901 205.217 236.43 216.979 239.556C235.374 244.064 247.918 242.862 251.284 236.37C252.747 233.585 251.144 223.225 240.283 209.619C228.862 195.272 207.782 177.538 197.683 169.984C164.72 145.077 137.569 135.358 131.798 133.435C118.052 128.846 108.874 129.828 104.646 133.475Z" fill="#855C52" style="--darkreader-inline-fill: #6a4a42;" data-darkreader-inline-fill=""></path>
<path d="M150.493 165.335C145.524 169.462 138.831 175.794 134.483 178.52C124.243 184.932 113.303 189.621 102.182 192.947C83.7266 198.457 69.4395 209.719 61.6848 229.136C54.411 247.851 56.1944 263.821 63.0073 276.325C71.7238 292.816 85.8306 301.132 99.5967 304.979C117.25 309.909 145.864 312.714 172.054 277.848C183.816 262.459 196.721 228.815 200.348 209.158C200.748 206.994 201.41 203.888 201.851 200.722C202.011 199.579 201.951 194.55 199.867 191.143C197.983 188.058 190.669 180.784 181.532 174.632C173.858 169.462 163.478 164.633 158.128 163.511C152.998 162.429 151.375 164.573 150.493 165.335" fill="#FCD4B5" style="--darkreader-inline-fill: #5d2b04;" data-darkreader-inline-fill=""></path>
<mask id="SvgjsMask1082" style="mask-type:luminance" maskUnits="userSpaceOnUse" x="57" y="163" width="145" height="145">
<path d="M150.493 165.335C145.524 169.462 138.831 175.794 134.483 178.52C124.243 184.932 113.303 189.621 102.182 192.947C83.7266 198.457 69.4395 209.719 61.6848 229.136C54.411 247.851 56.1944 263.821 63.0073 276.325C71.7238 292.816 85.8306 301.132 99.5967 304.979C117.25 309.909 145.864 312.714 172.054 277.848C183.816 262.459 196.721 228.815 200.348 209.158C200.748 206.994 201.41 203.888 201.851 200.722C202.011 199.579 201.951 194.55 199.867 191.143C197.983 188.058 190.669 180.784 181.532 174.632C173.858 169.462 163.478 164.633 158.128 163.511C152.998 162.429 151.375 164.573 150.493 165.335" fill="white" style="--darkreader-inline-fill: var(--darkreader-text-ffffff, #e8e6e3);" data-darkreader-inline-fill=""></path>
</mask>
<g mask="url(#mask0_1275_42)">
<path d="M57.036 254.263C57.036 254.263 75.1303 286.985 124.865 279.491C181.712 270.915 199.847 183.269 199.847 183.269L213.372 207.354C213.372 207.354 207.06 259.012 181.772 288.628C156.505 318.244 115.507 331.53 74.0482 302.334C43.7508 281.014 57.036 254.263 57.036 254.263Z" fill="#B89278" style="--darkreader-inline-fill: #72523c;" data-darkreader-inline-fill=""></path>
</g>
</svg><style>@media (prefers-color-scheme: light) { :root { filter: none; } }
@media (prefers-color-scheme: dark) { :root { filter: none; } }
</style></svg>